<?xml version="1.0" encoding="UTF-8"?>
<svg id="Layer_2" data-name="Layer 2" xmlns="http://www.w3.org/2000/svg" xmlns:xlink="http://www.w3.org/1999/xlink" viewBox="0 0 39.820007324216931 29.674220833043364">
  <defs>
    <style>
      .cls-1 {
        fill: url(#linear-gradient);
      }

      .cls-1, .cls-2, .cls-3 {
        stroke-width: 0px;
      }

      .cls-2 {
        fill: url(#linear-gradient-2);
      }

      .cls-3 {
        fill: url(#linear-gradient-3);
      }
    </style>
    <linearGradient id="linear-gradient" x1="8.412082806770741" y1="13.86031820097196" x2="-3.268396611754019" y2="17.759571869040997" gradientUnits="userSpaceOnUse">
      <stop offset="0" stop-color="#ebc1db"/>
      <stop offset=".04712592214181" stop-color="#e5b8d6"/>
      <stop offset=".369494583807456" stop-color="#c481ba"/>
      <stop offset=".647183500060868" stop-color="#ac58a5"/>
      <stop offset=".866450422045236" stop-color="#9d4098"/>
      <stop offset=".999999659021473" stop-color="#983794"/>
    </linearGradient>
    <linearGradient id="linear-gradient-2" x1="5.541319140917039" y1="18.211438391382217" x2="28.740219363206052" y2="18.211438391382217" gradientUnits="userSpaceOnUse">
      <stop offset=".000002045871159" stop-color="#ecc1db"/>
      <stop offset=".509497701122774" stop-color="#993895"/>
      <stop offset=".617275528874722" stop-color="#9a3b96"/>
      <stop offset=".699897643133023" stop-color="#a0449b"/>
      <stop offset=".774150570927321" stop-color="#aa55a3"/>
      <stop offset=".843493232737123" stop-color="#b86caf"/>
      <stop offset=".909434487666618" stop-color="#ca8abe"/>
      <stop offset=".971954886927917" stop-color="#dfaed1"/>
      <stop offset=".999999659021473" stop-color="#ebc1db"/>
    </linearGradient>
    <linearGradient id="linear-gradient-3" x1="19.910012352111153" y1="18.27266814907216" x2="39.820007324216931" y2="18.27266814907216" gradientUnits="userSpaceOnUse">
      <stop offset="0" stop-color="#ebc1db"/>
      <stop offset=".028683689412646" stop-color="#e5b7d5"/>
      <stop offset=".189227804007663" stop-color="#c786bc"/>
      <stop offset=".330211872604853" stop-color="#b162a9"/>
      <stop offset=".444931407976622" stop-color="#a34c9e"/>
      <stop offset=".518993697352915" stop-color="#9f459a"/>
      <stop offset=".593829395941784" stop-color="#a24a9c"/>
      <stop offset=".684342572376048" stop-color="#ab58a4"/>
      <stop offset=".782987261930792" stop-color="#ba71b1"/>
      <stop offset=".887405706072798" stop-color="#cf93c3"/>
      <stop offset=".995383018801071" stop-color="#e9bed9"/>
      <stop offset="1" stop-color="#ebc1db"/>
    </linearGradient>
  </defs>
  <g id="Layer_1-2" data-name="Layer 1">
    <g>
      <path class="cls-1" d="M11.338906455872348,24.010459556753631v5.541301760909846c-2.118570472066494,0-4.100447204642478-.580891907822661-5.797587314955308-1.594615460689965-3.317391078411674-1.976193470934959-5.541319140917039-5.601106358190009-5.541319140917039-9.744273615175189V0c2.770668260462116.074038821390786,5.054383540238632,2.090084643836235,5.541319140917039,4.738310768923839v13.474561472874484c0,3.200632204680005,2.596955110275303,5.797587314955308,5.797587314955308,5.797587314955308Z"/>
      <g>
        <path class="cls-2" d="M28.740219363206052,23.873765817261301v5.67516255958617c-.08542272467821.002832940816006-.173695770183258.002832940816006-.259118494861468.002832940816006-1.064977187677869,0-2.095785285484453-.14520994195118-3.072489427657274-.421430361751845-.968170559710416-.270519778154267-1.885087484613905-.669164953324071-2.727948208121234-1.17318509893812-1.045042321919027-.620761639343982-1.98189411257772-1.406685466401541-2.770650880454923-2.320752070478193-1.025124836163741-1.178868360580964-1.8081983423981-2.571319602870062-2.275199077317666-4.100447204644297-.321773412961193-1.050742963565426-.495469183142632-2.166973786050221-.495469183142632-3.323074340054518,0-3.203482525503205-2.596955110275303-5.800455015782063-5.800437635778508-5.800455015782063-3.200632204680005,0-5.797587314955308,2.596972490278858-5.797587314955308,5.800455015782063v-9.747141316001944c1.69714011031283-1.013723552870943,3.679016842888814-1.594615460693603,5.797587314955308-1.594615460693603,2.121420792889694,0,4.103314905471052.580891907822661,5.800437635778508,1.594615460693603,1.045042321919027.620761639340344,1.981894112579539,1.406685466399722,2.770668260460297,2.320752070478193,1.699973051130655,1.959108925997498,2.739332111406839,4.507660722287255,2.770650880454923,7.295396147679639v.008533582466043c.005700641646399,3.200649584687199,2.599805431098503,5.791904053312464,5.800437635778508,5.791904053312464.08542272467821,0,.173695770183258-.0028503208232.259118494861468-.008550962469599Z"/>
        <path class="cls-3" d="M39.820007324216931,18.090412726418435v11.583808106624929c-1.845217753092584-.076889142212167-3.465451341187872-1.022274515340541-4.467790990769572-2.437510944208043h-.0028503208232c-.67201527414727-.945367993124819-1.067827508501068-2.104318867950496-1.067827508501068-3.354393109104421v-5.800437635778508c0-3.118059800824994-2.457428429963329-5.658060634645153-5.541319140917039-5.791904053312464-.08542272467821-.005683261642844-.173695770183258-.008533582466043-.259118494861468-.008533582466043-3.203482525503205,0-5.800437635778508,2.596955110275303-5.800437635778508,5.800437635778508-.031318769048085-2.787735425392384-1.070677829324268-5.336287221682142-2.770650880454923-7.295396147679639.788756767877203-.914066604078471,1.725608558535896-1.699990431137849,2.770650880454923-2.320752070478193,1.697122730307456-1.013723552870943,3.679016842888814-1.594615460693603,5.800437635778508-1.594615460693603.08542272467821,0,.173695770183258,0,.259118494861468.0028503208232,2.021763844099041.045552993160527,3.912534590352152.620761639342163,5.541319140917039,1.591765139870404,3.283221988542209,1.959108925997498,5.495748767752957,5.532768178447441,5.53846882009384,9.624681800623875Z"/>
      </g>
    </g>
  </g>
</svg>